<?xml version="1.0" encoding="UTF-8" standalone="no"?>
<!-- Created with Inkscape (http://www.inkscape.org/) -->

<svg
   width="5cm"
   height="5cm"
   viewBox="0 0 49.999997 50"
   version="1.1"
   id="svg1"
   xmlns="http://www.w3.org/2000/svg"
   xmlns:svg="http://www.w3.org/2000/svg">
  <defs
     id="defs1">
    <clipPath
       clipPathUnits="userSpaceOnUse"
       id="clipPath16">
      <path
         d="M 0,283.465 H 283.465 V 0 H 0 Z"
         id="path16" />
    </clipPath>
  </defs>
  <g
     id="layer1"
     style="fill:currentColor">
    <path
       id="path1"
       d="M 8.6725246,6.7589362 H 7.1725141 v -0.42898 h 1.5000105 z"
       style="fill:currentColor;fill-opacity:1;fill-rule:nonzero;stroke:none;stroke-width:0.352778" />
    <path
       id="path2"
       d="m 11.243923,6.6509862 h 0.427566 v -0.21414 h -0.427566 z"
       style="fill:currentColor;fill-opacity:1;fill-rule:nonzero;stroke:none;stroke-width:0.352778" />
    <path
       id="path3"
       d="m 17.457044,6.7585762 h 0.964848 v -0.32173 h -0.964848 z"
       style="fill:currentColor;fill-opacity:1;fill-rule:nonzero;stroke:none;stroke-width:0.352778" />
    <path
       id="path4"
       d="m 36.098881,12.758265 h -2.142069 v -0.535509 h 2.142069 z"
       style="fill:currentColor;fill-opacity:1;fill-rule:nonzero;stroke:none;stroke-width:0.352778" />
    <path
       id="path5"
       d="m 33.491502,16.400695 h -0.64206 v -0.53551 h 0.64206 z"
       style="fill:currentColor;fill-opacity:1;fill-rule:nonzero;stroke:none;stroke-width:0.352778" />
    <path
       id="path6"
       d="m 24.385242,16.293105 h 7.60695 v -0.53587 h -7.60695 z"
       style="fill:currentColor;fill-opacity:1;fill-rule:nonzero;stroke:none;stroke-width:0.352778" />
    <path
       id="path7"
       d="m 28.242522,16.722085 h -3.4283 v -0.42898 h 3.4283 z"
       style="fill:currentColor;fill-opacity:1;fill-rule:nonzero;stroke:none;stroke-width:0.352778" />
    <path
       id="path8"
       d="m 23.313862,16.400695 h -0.64206 v -0.42791 h 0.64206 z"
       style="fill:currentColor;fill-opacity:1;fill-rule:nonzero;stroke:none;stroke-width:0.352778" />
    <path
       id="path9"
       d="m 47.777231,27.756615 h -4.60692 v -0.42792 h 4.60692 z"
       style="fill:currentColor;fill-opacity:1;fill-rule:nonzero;stroke:none;stroke-width:0.352778" />
    <path
       id="path10"
       d="m 45.313081,28.079055 h 0.74965 v -0.32244 h -0.74965 z"
       style="fill:currentColor;fill-opacity:1;fill-rule:nonzero;stroke:none;stroke-width:0.352778" />
    <path
       id="path11"
       d="m 43.920671,28.185595 h 0.42897 v -0.42898 h -0.42897 z"
       style="fill:currentColor;fill-opacity:1;fill-rule:nonzero;stroke:none;stroke-width:0.352778" />
    <path
       id="path12"
       d="m 8.3507921,21.758335 h 1.3927665 v -0.32279 H 8.3507921 Z"
       style="fill:currentColor;fill-opacity:1;fill-rule:nonzero;stroke:none;stroke-width:0.352778" />
    <path
       id="path13"
       d="m 9.5294226,24.649705 h 0.427919 v -0.21414 h -0.427919 z"
       style="fill:currentColor;fill-opacity:1;fill-rule:nonzero;stroke:none;stroke-width:0.352778" />
    <path
       id="path14"
       d="m 7.7080311,24.649705 h 0.8572495 v -0.32174 H 7.7080311 Z"
       style="fill:currentColor;fill-opacity:1;fill-rule:nonzero;stroke:none;stroke-width:0.352778" />
    <path
       id="path15"
       d="m 146.729,180.528 h -4.554 v 0.911 h 4.554 z m -2.202,-14.327 h -2.276 v 0.912 h 2.276 z m -9.641,14.25 h -2.731 v 0.988 h 2.731 z m -16.557,28.204 c -0.639,-1.329 -1.438,-2.462 -2.439,-1.984 -0.998,0.482 -1.294,1.945 -0.659,3.27 0.64,1.327 1.968,2.013 2.966,1.535 1.002,-0.481 0.767,-1.496 0.132,-2.821 m 81.981,-60.462 c -8.699,5.222 -11.542,6.682 -18.827,17.716 0,0 -17.819,19.028 -21.462,21.865 -3.645,2.834 -19.438,14.173 -20.247,14.982 -0.809,0.808 -7.135,6.178 -5.061,11.691 1.62,4.304 -3.036,6.532 -9.109,5.315 -6.075,-1.213 -10.934,-2.429 -14.172,-5.263 l -3.242,-2.834 -1.212,-1.217 -10.531,0.305 v -1.418 c 1.239,0.208 6.987,-0.202 8.656,-1.416 2.558,-1.86 2.279,-0.709 1.875,-4.759 -0.405,-4.047 -0.81,-17.006 2.833,-25.104 3.646,-8.1 7.189,-14.92 11.339,-17.513 3.238,-2.025 10.527,-4.756 10.527,-4.756 l 2.837,-5.267 c 0,0 1.011,-3.187 -2.94,-8.502 l -2.731,-5.263 -2.427,-3.813 c -0.496,0.097 -1.461,0.167 -3.241,0.167 h -7.696 c 0,0 -2.128,-0.661 0.558,-1.063 3.389,-0.506 4.099,-0.76 7.593,-1.062 3.226,-0.282 11.895,-3.697 13.108,-4.15 1.216,-0.456 1.014,0.607 1.014,0.607 0,0 -6.38,2.327 -7.693,3.643 -1.181,1.181 -0.305,2.583 -0.305,2.583 0,0 1.114,2.783 2.731,5.921 1.451,2.809 4.557,8.506 4.557,8.506 l 1.724,1.415 0.199,5.366 c 0,0 0.405,-0.305 3.239,-0.709 2.837,-0.404 6.075,-0.404 7.695,-0.404 1.622,0 2.022,1.62 0.405,-3.646 -1.621,-5.264 -4.051,-11.336 -4.859,-13.361 -0.809,-2.025 -12.504,-0.963 -12.504,-0.963 0,0 -1.973,-0.912 -0.456,-1.062 2.822,-0.283 4.477,-0.248 5.925,-0.305 3.794,-0.151 7.035,-0.507 7.035,-0.507 0,0 0.388,0.15 2.529,-0.251 0.809,-0.153 2.278,-0.304 6.987,-1.521 4.333,-1.117 3.036,0.154 -1.015,1.368 -4.047,1.216 -5.263,2.025 -5.263,2.025 0,0 -2.022,0.812 0,4.454 2.025,3.643 5.263,11.743 5.263,11.743 0,0 3.278,0.783 5.264,0.405 2.128,-0.405 5.216,-0.694 9.316,-1.721 3.239,-0.812 4.402,-0.696 6.679,-0.911 3.238,-0.302 4.304,-0.812 4.304,-0.812 2.831,-0.809 4.226,-2.109 8.656,-3.742 3.845,-1.418 9.005,-2.937 13.563,-4.153 4.305,-1.146 6.683,2.532 -1.418,7.391"
       style="fill:currentColor;fill-opacity:1;fill-rule:nonzero;stroke:none"
       transform="matrix(0.35277775,0,0,-0.35277775,-28.091854,87.157333)"
       clip-path="url(#clipPath16)" />
  </g>
</svg>
